<svg xmlns="http://www.w3.org/2000/svg" version="1.1" xmlns:xlink="http://www.w3.org/1999/xlink" xmlns:svgjs="http://svgjs.dev/svgjs" width="1000" height="623" viewBox="0 0 1000 623"><g transform="matrix(1,0,0,1,-0.6060604586485852,0.2522267206477409)"><svg viewBox="0 0 396 247" data-background-color="#ffffff" preserveAspectRatio="xMidYMid meet" height="623" width="1000" xmlns="http://www.w3.org/2000/svg" xmlns:xlink="http://www.w3.org/1999/xlink"><defs></defs><g id="tight-bounds" transform="matrix(1,0,0,1,0.2400000583752444,-0.09999999999999432)"><svg viewBox="0 0 395.52 247.2" height="247.2" width="395.52"><g><svg></svg></g><g><svg viewBox="0 0 395.52 247.2" height="247.2" width="395.52"><g><path d="M117.743 247.2l0-61.293 36.434 0v26.222h123.6v35.071zM117.743 0h36.434l0 61.293-36.434 0z" fill="#f43f5e" data-fill-palette-color="tertiary"></path></g><g transform="matrix(1,0,0,1,0,75.36883936861653)"><svg viewBox="0 0 395.52 96.46232126276693" height="96.46232126276693" width="395.52"><g><svg viewBox="0 0 395.52 96.46232126276693" height="96.46232126276693" width="395.52"><g><svg viewBox="0 0 395.52 96.46232126276693" height="96.46232126276693" width="395.52"><g><svg viewBox="0 0 395.52 96.46232126276693" height="96.46232126276693" width="395.52"><g><svg viewBox="0 0 395.52 96.46232126276693" height="96.46232126276693" width="395.52"><g><svg viewBox="0 0 395.52 96.46232126276693" height="96.46232126276693" width="395.52"><g transform="matrix(1,0,0,1,0,0)"><svg width="395.52" viewBox="3.950000047683716 -38.849998474121094 161.54000854492188 39.39999771118164" height="96.46232126276693" data-palette-color="#f43f5e"><path d="M3.95 0L3.95-38.85 9.1-38.85 9.1 0 3.95 0ZM25.7 0.5L25.7 0.5Q22.75 0.5 20.35-0.73 17.95-1.95 16.55-4.4 15.15-6.85 15.15-10.45L15.15-10.45Q15.15-14 16.62-16.55 18.1-19.1 20.52-20.48 22.95-21.85 25.8-21.85L25.8-21.85Q28.8-21.85 30.72-20.58 32.65-19.3 33.75-17.6L33.75-17.6 33.4-16.8 33.9-20.95 38.65-20.95 38.65 0 33.5 0 33.5-5.25 34.05-4Q33.85-3.6 33.2-2.88 32.55-2.15 31.47-1.35 30.4-0.55 28.97-0.03 27.55 0.5 25.7 0.5ZM27.1-3.7L27.1-3.7Q28.75-3.7 30.05-4.3 31.35-4.9 32.25-6 33.15-7.1 33.5-8.6L33.5-8.6 33.5-12.95Q33.1-14.35 32.15-15.38 31.2-16.4 29.87-17 28.55-17.6 26.95-17.6L26.95-17.6Q25.15-17.6 23.65-16.73 22.15-15.85 21.25-14.3 20.35-12.75 20.35-10.7L20.35-10.7Q20.35-8.75 21.27-7.15 22.2-5.55 23.75-4.63 25.3-3.7 27.1-3.7ZM55.5 0.55L55.3 0.55 43.45-20.95 49.55-20.95 57.25-4.75 54.1-4.9 61.1-20.95 66.84-20.95 55.5 0.55ZM80.94 0.5L80.94 0.5Q77.29 0.5 74.69-0.93 72.09-2.35 70.69-4.88 69.29-7.4 69.29-10.65L69.29-10.65Q69.29-13.75 70.87-16.28 72.44-18.8 75.12-20.3 77.79-21.8 81.04-21.8L81.04-21.8Q85.24-21.8 88.02-19.35 90.79-16.9 91.74-12.5L91.74-12.5 74.69-6.6 73.49-9.6 87.14-14.5 86.09-13.85Q85.49-15.4 84.19-16.57 82.89-17.75 80.64-17.75L80.64-17.75Q78.84-17.75 77.42-16.88 75.99-16 75.17-14.48 74.34-12.95 74.34-10.9L74.34-10.9Q74.34-8.8 75.22-7.23 76.09-5.65 77.62-4.75 79.14-3.85 81.04-3.85L81.04-3.85Q82.39-3.85 83.62-4.35 84.84-4.85 85.94-5.6L85.94-5.6 88.29-1.8Q86.64-0.75 84.72-0.13 82.79 0.5 80.94 0.5ZM97.44-20.95L102.04-20.95 102.49-16.15 102.29-16.8Q103.34-19.05 105.54-20.43 107.74-21.8 110.74-21.8L110.74-21.8Q113.69-21.8 115.62-20.05 117.54-18.3 117.59-15.5L117.59-15.5 117.59 0 112.44 0 112.44-13.7Q112.39-15.3 111.49-16.32 110.59-17.35 108.69-17.4L108.69-17.4Q106.99-17.4 105.59-16.38 104.19-15.35 103.39-13.6 102.59-11.85 102.59-9.55L102.59-9.55 102.59 0 97.44 0 97.44-20.95ZM127.49-20.9L127.49-30.15 132.64-30.15 132.64-20.9 138.24-20.9 138.24-16.85 132.64-16.85 132.64 0 127.49 0 127.49-16.85 123.79-16.85 123.79-20.9 127.49-20.9ZM152.53 0.5L152.53 0.5Q149.59 0.5 147.19-0.73 144.78-1.95 143.39-4.4 141.99-6.85 141.99-10.45L141.99-10.45Q141.99-14 143.46-16.55 144.94-19.1 147.36-20.48 149.78-21.85 152.64-21.85L152.64-21.85Q155.64-21.85 157.56-20.58 159.49-19.3 160.59-17.6L160.59-17.6 160.24-16.8 160.74-20.95 165.49-20.95 165.49 0 160.34 0 160.34-5.25 160.89-4Q160.69-3.6 160.04-2.88 159.39-2.15 158.31-1.35 157.24-0.55 155.81-0.03 154.39 0.5 152.53 0.5ZM153.94-3.7L153.94-3.7Q155.59-3.7 156.89-4.3 158.19-4.9 159.09-6 159.99-7.1 160.34-8.6L160.34-8.6 160.34-12.95Q159.94-14.35 158.99-15.38 158.03-16.4 156.71-17 155.39-17.6 153.78-17.6L153.78-17.6Q151.99-17.6 150.49-16.73 148.99-15.85 148.09-14.3 147.19-12.75 147.19-10.7L147.19-10.7Q147.19-8.75 148.11-7.15 149.03-5.55 150.59-4.63 152.14-3.7 153.94-3.7Z" opacity="1" transform="matrix(1,0,0,1,0,0)" fill="#f43f5e" class="undefined-text-0" data-fill-palette-color="primary" id="text-0"></path></svg></g></svg></g></svg></g></svg></g><g></g></svg></g></svg></g></svg></g></svg></g></svg><rect width="395.52" height="247.2" fill="none" stroke="none" visibility="hidden"></rect></g></svg></g></svg>