<svg width="130" height="130" viewBox="0 0 130 130" fill="none" xmlns="http://www.w3.org/2000/svg">
<circle opacity="0.2" cx="65" cy="65" r="54.75" stroke="#10A711" stroke-width="0.5"/>
<circle opacity="0.3" cx="65" cy="65" r="44.6" stroke="#10A711" stroke-width="0.8"/>
<circle opacity="0.2" cx="65" cy="65" r="64.9" stroke="#10A711" stroke-width="0.2"/>
<g clip-path="url(#clip0_26_209)">
<path d="M65.1837 30C45.855 30 30.1837 45.6712 30.1837 65C30.1837 84.3288 45.855 100 65.1837 100C84.5125 100 100.184 84.3288 100.184 65C100.184 45.6712 84.5125 30 65.1837 30ZM81.3975 55.3181L64.6325 80.9425C64.6281 80.9469 64.6193 80.9513 64.6193 80.9556C64.5318 81.0869 64.4837 81.2356 64.3743 81.3581C64.2212 81.5244 64.0243 81.6119 63.8493 81.7388C63.8056 81.7694 63.7618 81.8044 63.7137 81.835C63.4425 82.0056 63.1625 82.1194 62.8562 82.1938C62.7556 82.22 62.6637 82.2463 62.5587 82.2638C62.315 82.2973 62.0681 82.3002 61.8237 82.2725C61.6511 82.2616 61.4798 82.2352 61.3118 82.1938C61.1386 82.1415 60.9702 82.0742 60.8087 81.9925C60.6687 81.9269 60.52 81.9094 60.3887 81.8262C60.2925 81.765 60.24 81.6688 60.1568 81.5944C60.1218 81.5638 60.0781 81.555 60.0431 81.5244L50.2825 72.4987C49.7039 71.9432 49.3664 71.1829 49.3424 70.3811C49.3185 69.5794 49.61 68.8003 50.1544 68.2112C50.6988 67.6222 51.4525 67.2702 52.2537 67.2309C53.0548 67.1916 53.8393 67.4682 54.4387 68.0013L61.5043 74.5375L76.27 51.9669C76.7144 51.2869 77.4107 50.8114 78.2057 50.6448C79.0008 50.4783 79.8294 50.6343 80.5093 51.0787C81.1893 51.5232 81.6648 52.2195 81.8314 53.0145C81.998 53.8095 81.8419 54.6382 81.3975 55.3181Z" fill="#10A711"/>
</g>
<defs>
<clipPath id="clip0_26_209">
<rect width="70" height="70" fill="white" transform="translate(30 30)"/>
</clipPath>
</defs>
</svg>
